<?xml version="1.0" encoding="utf-8"?>
<!-- Generator: Adobe Illustrator 16.0.3, SVG Export Plug-In . SVG Version: 6.00 Build 0)  -->
<!DOCTYPE svg PUBLIC "-//W3C//DTD SVG 1.1//EN" "http://www.w3.org/Graphics/SVG/1.1/DTD/svg11.dtd">
<svg version="1.1" id="Layer_1" xmlns="http://www.w3.org/2000/svg" xmlns:xlink="http://www.w3.org/1999/xlink" x="0px" y="0px"
	 width="215.062px" height="186px" viewBox="0 0 215.062 186" enable-background="new 0 0 215.062 186" xml:space="preserve">
<text transform="matrix(1 0 0 1 16.6963 28.4897)"><tspan x="0" y="0" fill="#585858" font-family="'Lato-Semibold'" font-size="18">INSE</tspan><tspan x="39.194" y="0" fill="#585858" font-family="'Lato-Semibold'" font-size="18">R</tspan><tspan x="50.282" y="0" fill="#585858" font-family="'Lato-Semibold'" font-size="18">T</tspan><tspan x="60.479" y="0" fill="#585858" font-family="'Lato-Semibold'" font-size="18"> </tspan><tspan x="64.367" y="0" fill="#585858" font-family="'Lato-Semibold'" font-size="18">AV</tspan><tspan x="87.101" y="0" fill="#585858" font-family="'Lato-Semibold'" font-size="18">AILABILITY</tspan></text>
<g>
	<defs>
		<rect id="SVGID_1_" width="215.062" height="186"/>
	</defs>
	<clipPath id="SVGID_2_">
		<use xlink:href="#SVGID_1_"  overflow="visible"/>
	</clipPath>
	<path clip-path="url(#SVGID_2_)" fill="none" stroke="#585858" stroke-width="5" stroke-miterlimit="10" d="M65.483,63.009
		c0,0-12,0-12,12v84.803c0,0,0,12,12,12h91.154c0,0,12,0,12-12V75.009c0,0,0-12-12-12H65.483z"/>
	<path clip-path="url(#SVGID_2_)" fill="#585858" d="M65.483,64.467c0,0-12,0-12,12v3.061c0,0,0,12,12,12h91.154c0,0,12,0,12-12
		v-3.061c0,0,0-12-12-12H65.483z"/>
	<path clip-path="url(#SVGID_2_)" fill="none" stroke="#585858" stroke-width="5" stroke-miterlimit="10" d="M65.483,64.467
		c0,0-12,0-12,12v3.061c0,0,0,12,12,12h91.154c0,0,12,0,12-12v-3.061c0,0,0-12-12-12H65.483z"/>
</g>
<line fill="none" stroke="#585858" stroke-width="5" stroke-miterlimit="10" x1="88.687" y1="94.044" x2="88.687" y2="170.256"/>
<line fill="none" stroke="#585858" stroke-width="5" stroke-miterlimit="10" x1="133.647" y1="92.586" x2="133.647" y2="168.798"/>
<line fill="none" stroke="#585858" stroke-width="5" stroke-miterlimit="10" x1="53.899" y1="116.947" x2="167.702" y2="116.947"/>
<line fill="none" stroke="#585858" stroke-width="5" stroke-miterlimit="10" x1="53.899" y1="147.959" x2="167.702" y2="147.959"/>
</svg>
